<?xml version="1.0" encoding="utf-8"?>
<!-- Generator: Adobe Illustrator 19.0.0, SVG Export Plug-In . SVG Version: 6.00 Build 0)  -->
<svg version="1.1" id="Layer_1" xmlns="http://www.w3.org/2000/svg" xmlns:xlink="http://www.w3.org/1999/xlink" x="0px" y="0px"
	 width="1400px" height="1400px" viewBox="0 0 1400 1400" enable-background="new 0 0 1400 1400" xml:space="preserve">
<g id="XMLID_3769_">
	<defs>
		<rect id="XMLID_3749_" width="1400" height="1400"/>
	</defs>
	<clipPath id="XMLID_2_">
		<use xlink:href="#XMLID_3749_"  overflow="visible"/>
	</clipPath>
	<g id="XMLID_3747_" clip-path="url(#XMLID_2_)">
		<linearGradient id="XMLID_3_" gradientUnits="userSpaceOnUse" x1="700" y1="1073" x2="700" y2="-55.0638">
			<stop  offset="5.000000e-003" style="stop-color:#00A774"/>
			<stop  offset="1" style="stop-color:#000238"/>
		</linearGradient>
		<rect id="XMLID_2953_" fill="url(#XMLID_3_)" width="1400" height="1400"/>
		<g id="XMLID_2145_">
			<linearGradient id="XMLID_4_" gradientUnits="userSpaceOnUse" x1="1071.1685" y1="741.1843" x2="1097.4478" y2="1044.2733">
				<stop  offset="5.000000e-003" style="stop-color:#00A774"/>
				<stop  offset="1" style="stop-color:#000238"/>
			</linearGradient>
			<polygon id="XMLID_2987_" fill="url(#XMLID_4_)" points="1421,693.7 1309,632.3 1185,729.4 1125,729.4 1050.1,794.9 969,767.5 
				757,832.8 737,969.5 1400,969.5 			"/>
			<linearGradient id="XMLID_5_" gradientUnits="userSpaceOnUse" x1="1177.2692" y1="654.0289" x2="1185.2692" y2="994.0289">
				<stop  offset="5.000000e-003" style="stop-color:#00A774"/>
				<stop  offset="1" style="stop-color:#000238"/>
			</linearGradient>
			<polygon id="XMLID_3721_" fill="url(#XMLID_5_)" points="1125,729.4 1175.3,779.7 1134.5,779.7 1236.5,874.5 1185,729.4 			"/>
			<linearGradient id="XMLID_6_" gradientUnits="userSpaceOnUse" x1="1297.0767" y1="654.9955" x2="1322.8656" y2="952.4285">
				<stop  offset="5.000000e-003" style="stop-color:#00A774"/>
				<stop  offset="1" style="stop-color:#000238"/>
			</linearGradient>
			<polygon id="XMLID_3562_" fill="url(#XMLID_6_)" points="1309,632.3 1331,706 1369,706 1250,825 1349,825 1375.5,851.5 
				1203,960.5 1429.7,960.5 1421,693.7 			"/>
		</g>
		<linearGradient id="XMLID_7_" gradientUnits="userSpaceOnUse" x1="714.8353" y1="1377" x2="714.8353" y2="944.9815">
			<stop  offset="5.000000e-003" style="stop-color:#00A774"/>
			<stop  offset="1" style="stop-color:#000238"/>
		</linearGradient>
		<rect id="XMLID_2301_" y="957.8" fill="url(#XMLID_7_)" width="1429.7" height="442.2"/>
		<g id="XMLID_3726_">
			<defs>
				<rect id="XMLID_3563_" x="678.6" y="960.5" width="808.4" height="448.2"/>
			</defs>
			<clipPath id="XMLID_8_">
				<use xlink:href="#XMLID_3563_"  overflow="visible"/>
			</clipPath>
			<g id="XMLID_3722_" opacity="0.55" clip-path="url(#XMLID_8_)">
				
					<linearGradient id="XMLID_9_" gradientUnits="userSpaceOnUse" x1="1071.1685" y1="1045.6757" x2="1097.4478" y2="1348.7648" gradientTransform="matrix(1 0 0 -1 0 2161.0112)">
					<stop  offset="5.000000e-003" style="stop-color:#00A774"/>
					<stop  offset="1" style="stop-color:#000238"/>
				</linearGradient>
				<polygon id="XMLID_3725_" fill="url(#XMLID_9_)" points="1421,1162.8 1309,1224.2 1185,1127.1 1125,1127.1 1050.1,1061.6 
					969,1089.1 757,1023.7 737,887 1400,887 				"/>
				
					<linearGradient id="XMLID_10_" gradientUnits="userSpaceOnUse" x1="1177.2692" y1="958.5203" x2="1185.2692" y2="1298.5203" gradientTransform="matrix(1 0 0 -1 0 2161.0112)">
					<stop  offset="5.000000e-003" style="stop-color:#00A774"/>
					<stop  offset="1" style="stop-color:#000238"/>
				</linearGradient>
				<polygon id="XMLID_3724_" fill="url(#XMLID_10_)" points="1125,1127.1 1175.3,1076.8 1134.5,1076.8 1236.5,982 1185,1127.1 				
					"/>
				
					<linearGradient id="XMLID_11_" gradientUnits="userSpaceOnUse" x1="1297.0767" y1="959.4869" x2="1322.8656" y2="1256.9199" gradientTransform="matrix(1 0 0 -1 0 2161.0112)">
					<stop  offset="5.000000e-003" style="stop-color:#00A774"/>
					<stop  offset="1" style="stop-color:#000238"/>
				</linearGradient>
				<polygon id="XMLID_3723_" fill="url(#XMLID_11_)" points="1309,1224.2 1331,1150.5 1369,1150.5 1250,1031.5 1349,1031.5 
					1375.5,1005 1203,896 1429.7,896 1421,1162.8 				"/>
			</g>
		</g>
		
			<linearGradient id="XMLID_12_" gradientUnits="userSpaceOnUse" x1="890.2112" y1="166.2703" x2="638.2112" y2="722.2703" gradientTransform="matrix(1 0 0 -1 0 1823.7683)">
			<stop  offset="5.000000e-003" style="stop-color:#00A774"/>
			<stop  offset="1" style="stop-color:#000238"/>
		</linearGradient>
		<path id="XMLID_2154_" fill="url(#XMLID_12_)" d="M1180.3,999.2l-21.2,94.5l-18.2-81.2c-25.5,8.5-51.6,17.1-78.1,25.7l-18.8,83.6
			l-16.2-72.4c-4.4,1.4-8.8,2.8-13.2,4.2l-15.7,69.9l-3.6-16.1l-8.6,38.3l-17.5-77.8c-10.3,3.2-20.7,6.5-31,9.7l-33.9,151.3
			l-26.2-116.6l-21.2,94.3l-21.8-97.3c-20.4,6.2-40.7,12.3-61.1,18.4l-8.4,37.4l-7.3-32.7c-24.7,7.3-49.3,14.6-73.7,21.8L658.9,1269
			l-20.8-92.8l-35.5,158.4l-32.9-146.9c-16.6,4.8-33,9.5-49.2,14.1L497.7,1303l-20-89c-14.3,4.1-28.5,8-42.5,12l-33.3,148.5
			l-29.4-131c-1.4,0.4-2.9,0.8-4.3,1.2l-36.8,164l-32.5-144.9C120.4,1312.9-3,1344.9-3,1344.9V948.3l430.6-21.5
			c0,0,404.4,24.9,893.2,22.6C1277.2,965.6,1230,982.3,1180.3,999.2z"/>
		<g id="XMLID_2745_">
			<linearGradient id="XMLID_13_" gradientUnits="userSpaceOnUse" x1="1040.8734" y1="522.9651" x2="978.7969" y2="150.5064">
				<stop  offset="0" style="stop-color:#62C194"/>
				<stop  offset="0.17" style="stop-color:#00A774"/>
				<stop  offset="0.995" style="stop-color:#000238;stop-opacity:0"/>
			</linearGradient>
			<path id="XMLID_3700_" fill="url(#XMLID_13_)" d="M1054,454.3c-12-107.7-21-212.9-30-319.7c-7.3-75.2-13.6-150-32.1-223.3
				c-30.7,0.6-60.4,1-87.6,0.9c31.2,140.5,36.1,284.3,52.7,428c6.7,59.9,17.1,118.9,29.8,177.5c25.2-2.3,50.4-5.1,75.6-8.2
				C1059.1,491.1,1056.2,472.8,1054,454.3z"/>
			<linearGradient id="XMLID_14_" gradientUnits="userSpaceOnUse" x1="929.3736" y1="479.2541" x2="865.4076" y2="95.4581">
				<stop  offset="0" style="stop-color:#62C194"/>
				<stop  offset="0.17" style="stop-color:#00A774"/>
				<stop  offset="0.995" style="stop-color:#000238;stop-opacity:0"/>
			</linearGradient>
			<path id="XMLID_3705_" fill="url(#XMLID_14_)" d="M904.3-87.9c-42.8-0.1-79.2-1.5-103-5.1c-2.1-0.3-4.2,0-6.3-0.1
				c14.6,105.6,70.4,549.5,70.4,549.5c2.7,8.9-4.4,17.7-5.7,26.8c-2.1,14.9,12.3,28.7,29.3,34.2c17,5.6,36,4.8,54.3,3.6
				c14.5-1,29-2.1,43.5-3.4C974.1,459,963.7,400,957,340.1C940.5,196.3,935.5,52.6,904.3-87.9z"/>
			<linearGradient id="XMLID_15_" gradientUnits="userSpaceOnUse" x1="1119.5569" y1="457.4207" x2="1058.5227" y2="91.2157">
				<stop  offset="0" style="stop-color:#62C194"/>
				<stop  offset="0.17" style="stop-color:#00A774"/>
				<stop  offset="0.995" style="stop-color:#000238;stop-opacity:0"/>
			</linearGradient>
			<path id="XMLID_3696_" fill="url(#XMLID_15_)" d="M1126.6,175.7c-14.5-89.8-19-178.7-32.5-266.7c-33.7,0.7-68.5,1.5-102.2,2.2
				c18.5,73.4,24.8,148.1,32.1,223.3c9,106.8,18,212.1,30,319.7c2.2,18.5,5.1,36.9,8.4,55.1c32.3-4,64.5-8.4,96.8-12.9
				C1149.1,390.4,1144.4,284,1126.6,175.7z"/>
			<linearGradient id="XMLID_16_" gradientUnits="userSpaceOnUse" x1="1538.8326" y1="415.9231" x2="1476.5355" y2="42.1402">
				<stop  offset="0" style="stop-color:#62C194"/>
				<stop  offset="0.17" style="stop-color:#00A774"/>
				<stop  offset="0.995" style="stop-color:#000238;stop-opacity:0"/>
			</linearGradient>
			<path id="XMLID_3699_" fill="url(#XMLID_16_)" d="M1626.5,154c8.9-80.7,30.8-160.7,29.2-241.7c-135.8-1.3-261.8-2-386.9-2.5
				c15.2,86.5,27.8,172.3,34.2,260.6c7.8,101.7,28.6,201.7,46.1,301.8c95.4-9.5,190.5-12.4,285.1,2
				C1623.6,367.4,1614.6,260.8,1626.5,154z"/>
			<linearGradient id="XMLID_17_" gradientUnits="userSpaceOnUse" x1="1264.2778" y1="504.5509" x2="1203.9374" y2="142.5082">
				<stop  offset="0" style="stop-color:#62C194"/>
				<stop  offset="0.17" style="stop-color:#00A774"/>
				<stop  offset="0.995" style="stop-color:#000238;stop-opacity:0"/>
			</linearGradient>
			<path id="XMLID_3704_" fill="url(#XMLID_17_)" d="M1268.8-90.2c-58.1-0.3-116.1-0.5-174.7-0.8c13.5,88.1,18.1,177,32.5,266.7
				c17.7,108.3,22.4,214.7,32.5,320.8c63.4-8.9,126.8-18,190-24.3c-17.6-100-38.3-200-46.1-301.8C1296.6,82.1,1284-3.7,1268.8-90.2z
				"/>
			<linearGradient id="XMLID_18_" gradientUnits="userSpaceOnUse" x1="646.3324" y1="478.9713" x2="609.7198" y2="176.3072">
				<stop  offset="0" style="stop-color:#62C194"/>
				<stop  offset="0.17" style="stop-color:#00A774"/>
				<stop  offset="0.995" style="stop-color:#000238;stop-opacity:0"/>
			</linearGradient>
			<path id="XMLID_3708_" fill="url(#XMLID_18_)" d="M723.4,438.8c-24.6,2.2-49.2,4.6-73.6,5.4c-25.5,0.8-50.8-0.1-75.7-5.1
				c-12.2-2.4-24.9-6.2-32.1-14.6c-12.1-14-3.4-33.6,8.2-47.9c11.6-14.3,26.6-28.6,26.4-45.8c0-4.3-1.1-8.4-2.9-12.3l-51-414.5
				c26-0.1,52,0,78.1,0c25.9,0.1,51.9,0.2,77.8,0.4c13,123.7,15.3,247.9,25.4,372.7C708.4,331.5,715.8,385.1,723.4,438.8z"/>
			<linearGradient id="XMLID_19_" gradientUnits="userSpaceOnUse" x1="603.6431" y1="447.3966" x2="567.2576" y2="146.6103">
				<stop  offset="0" style="stop-color:#62C194"/>
				<stop  offset="0.17" style="stop-color:#00A774"/>
				<stop  offset="0.995" style="stop-color:#000238;stop-opacity:0"/>
			</linearGradient>
			<path id="XMLID_3706_" fill="url(#XMLID_19_)" d="M649.9,444.2c-25.5,0.8-50.8-0.1-75.7-5.1c-12.2-2.4-24.9-6.2-32.1-14.6
				c-12.1-14-3.4-33.6,8.2-47.9c11.6-14.3,26.6-28.6,26.4-45.8c0-4.3-1.1-8.4-2.9-12.3l-51-414.5c26-0.1,52,0,78.1,0
				c11.5,135.8,24.2,303.6,31.2,390.2C636.1,344.6,642.8,394.4,649.9,444.2z"/>
			<linearGradient id="XMLID_20_" gradientUnits="userSpaceOnUse" x1="770.8549" y1="450.6576" x2="734.9839" y2="154.1244">
				<stop  offset="0" style="stop-color:#62C194"/>
				<stop  offset="0.17" style="stop-color:#00A774"/>
				<stop  offset="0.995" style="stop-color:#000238;stop-opacity:0"/>
			</linearGradient>
			<path id="XMLID_3702_" fill="url(#XMLID_20_)" d="M816.2,435.5C795.6,313.7,779.8,191.2,761,66.8
				c-8.4-54.3-12.4-108.2-20.6-161.8c-20.6-0.2-41.2-0.4-61.8-0.5c13,123.7,15.3,247.9,25.4,372.7c4.4,54.2,11.8,107.9,19.4,161.5
				C754.5,436,785.6,433.6,816.2,435.5z"/>
			<linearGradient id="XMLID_21_" gradientUnits="userSpaceOnUse" x1="829.2366" y1="367.5007" x2="792.3376" y2="62.4694">
				<stop  offset="0" style="stop-color:#62C194"/>
				<stop  offset="0.17" style="stop-color:#00A774"/>
				<stop  offset="0.995" style="stop-color:#000238;stop-opacity:0"/>
			</linearGradient>
			<path id="XMLID_3698_" fill="url(#XMLID_21_)" d="M872.7,455.2c0,0-55.8-444-70.4-549.5c-20.6-0.2-41.3-0.4-62-0.6
				c8.2,53.5,12.2,107.4,20.6,161.8c18.8,124.3,34.6,246.9,55.2,368.7c8.4,0.5,16.7,1.3,25,2.6C854.4,440,869.5,444.6,872.7,455.2z"
				/>
			<linearGradient id="XMLID_22_" gradientUnits="userSpaceOnUse" x1="500.9311" y1="274.3739" x2="478.719" y2="71.997">
				<stop  offset="0" style="stop-color:#62C194"/>
				<stop  offset="0.17" style="stop-color:#00A774"/>
				<stop  offset="0.995" style="stop-color:#000238;stop-opacity:0"/>
			</linearGradient>
			<path id="XMLID_3680_" fill="url(#XMLID_22_)" d="M522.8-95.9c-43.5,0.1-86.9,0.5-130.3,1.2l58.4,377.9c9.9-0.1,19.8,0,29.8,0.1
				c20.8,0.4,42.3,1.4,61.1,8.6c14.1,5.4,26.6,15.1,32.1,26.7L522.8-95.9z"/>
			<linearGradient id="XMLID_23_" gradientUnits="userSpaceOnUse" x1="105.0057" y1="322.7209" x2="82.9509" y2="121.7772">
				<stop  offset="0" style="stop-color:#62C194"/>
				<stop  offset="0.17" style="stop-color:#00A774"/>
				<stop  offset="0.995" style="stop-color:#000238;stop-opacity:0"/>
			</linearGradient>
			<path id="XMLID_3681_" fill="url(#XMLID_23_)" d="M149.7-86.2C87-82.6,24.3-77.9-38.2-71.6L4.5,373.8
				c65.2-27.6,134.2-49.1,205.2-64.2c-7.7-68.1-21.2-134.6-36.7-204.4C159.4,40.5,159.6-23.8,149.7-86.2z"/>
			<linearGradient id="XMLID_24_" gradientUnits="userSpaceOnUse" x1="261.0564" y1="336.5012" x2="241.3411" y2="156.8733">
				<stop  offset="0" style="stop-color:#62C194"/>
				<stop  offset="0.17" style="stop-color:#00A774"/>
				<stop  offset="0.995" style="stop-color:#000238;stop-opacity:0"/>
			</linearGradient>
			<path id="XMLID_3707_" fill="url(#XMLID_24_)" d="M288,90.5c-10.5-61-9.8-122.4-22.5-181.9c-38.6,1.4-77.2,3.1-115.8,5.3
				c9.9,62.4,9.6,126.7,23.3,191.3c15.5,69.8,29,136.3,36.7,204.4c36.8-7.8,74.2-14,111.9-18.4C308.8,225.1,300.1,158.1,288,90.5z"
				/>
			<linearGradient id="XMLID_25_" gradientUnits="userSpaceOnUse" x1="348.8303" y1="255.3923" x2="329.6819" y2="80.9296">
				<stop  offset="0" style="stop-color:#62C194"/>
				<stop  offset="0.17" style="stop-color:#00A774"/>
				<stop  offset="0.995" style="stop-color:#000238;stop-opacity:0"/>
			</linearGradient>
			<path id="XMLID_3703_" fill="url(#XMLID_25_)" d="M332.7-93.5c-22.4,0.6-44.8,1.2-67.2,2C278.2-31.9,277.5,29.5,288,90.5
				c12.1,67.6,20.8,134.7,33.6,200.7c25.1-2.9,50.4-5.1,75.8-6.4C380.2,158.2,352.7,32.8,332.7-93.5z"/>
			<linearGradient id="XMLID_26_" gradientUnits="userSpaceOnUse" x1="418.3337" y1="336.8812" x2="396.1738" y2="134.9794">
				<stop  offset="0" style="stop-color:#62C194"/>
				<stop  offset="0.17" style="stop-color:#00A774"/>
				<stop  offset="0.995" style="stop-color:#000238;stop-opacity:0"/>
			</linearGradient>
			<path id="XMLID_3682_" fill="url(#XMLID_26_)" d="M392.4-94.7c-19.9,0.3-39.8,0.7-59.7,1.2c20,126.3,47.6,251.7,64.7,378.3
				c17.8-0.9,35.7-1.5,53.5-1.6L392.4-94.7z"/>
		</g>
		<g id="XMLID_3665_" opacity="0.68">
			
				<linearGradient id="XMLID_27_" gradientUnits="userSpaceOnUse" x1="1040.8734" y1="442.6766" x2="978.7969" y2="70.2179" gradientTransform="matrix(1 0 0 -1 0 1754.7588)">
				<stop  offset="0" style="stop-color:#62C194"/>
				<stop  offset="0.165" style="stop-color:#00A774"/>
				<stop  offset="0.995" style="stop-color:#000238;stop-opacity:0"/>
			</linearGradient>
			<path id="XMLID_3720_" fill="url(#XMLID_27_)" d="M1054,1380.8c-12,107.7-21,212.9-30,319.7c-7.3,75.2-13.6,150-32.1,223.3
				c-30.7-0.6-60.4-1-87.6-0.9c31.2-140.5,36.1-284.3,52.7-428c6.7-59.9,17.1-118.9,29.8-177.5c25.2,2.3,50.4,5.1,75.6,8.2
				C1059.1,1343.9,1056.2,1362.3,1054,1380.8z"/>
			
				<linearGradient id="XMLID_28_" gradientUnits="userSpaceOnUse" x1="929.3736" y1="398.9656" x2="865.4076" y2="15.1696" gradientTransform="matrix(1 0 0 -1 0 1754.7588)">
				<stop  offset="0" style="stop-color:#62C194"/>
				<stop  offset="0.165" style="stop-color:#00A774"/>
				<stop  offset="0.995" style="stop-color:#000238;stop-opacity:0"/>
			</linearGradient>
			<path id="XMLID_3719_" fill="url(#XMLID_28_)" d="M904.3,1923c-42.8,0.1-79.2,1.5-103,5.1c-2.1,0.3-4.2,0-6.3,0.1
				c14.6-105.6,70.4-549.5,70.4-549.5c2.7-8.9-4.4-17.7-5.7-26.8c-2.1-14.9,12.3-28.7,29.3-34.2c17-5.6,36-4.8,54.3-3.6
				c14.5,1,29,2.1,43.5,3.4c-12.7,58.5-23.1,117.6-29.8,177.5C940.5,1638.7,935.5,1782.5,904.3,1923z"/>
			
				<linearGradient id="XMLID_29_" gradientUnits="userSpaceOnUse" x1="1119.5569" y1="377.1322" x2="1058.5227" y2="10.9272" gradientTransform="matrix(1 0 0 -1 0 1754.7588)">
				<stop  offset="0" style="stop-color:#62C194"/>
				<stop  offset="0.165" style="stop-color:#00A774"/>
				<stop  offset="0.995" style="stop-color:#000238;stop-opacity:0"/>
			</linearGradient>
			<path id="XMLID_3718_" fill="url(#XMLID_29_)" d="M1126.6,1659.3c-14.5,89.8-19,178.7-32.5,266.7c-33.7-0.7-68.5-1.5-102.2-2.2
				c18.5-73.4,24.8-148.1,32.1-223.3c9-106.8,18-212.1,30-319.7c2.2-18.5,5.1-36.9,8.4-55.1c32.3,4,64.5,8.4,96.8,12.9
				C1149.1,1444.6,1144.4,1551,1126.6,1659.3z"/>
			
				<linearGradient id="XMLID_30_" gradientUnits="userSpaceOnUse" x1="1538.8326" y1="335.6346" x2="1476.5355" y2="-38.1484" gradientTransform="matrix(1 0 0 -1 0 1754.7588)">
				<stop  offset="0" style="stop-color:#62C194"/>
				<stop  offset="0.165" style="stop-color:#00A774"/>
				<stop  offset="0.995" style="stop-color:#000238;stop-opacity:0"/>
			</linearGradient>
			<path id="XMLID_3717_" fill="url(#XMLID_30_)" d="M1626.5,1681c8.9,80.7,30.8,160.7,29.2,241.7c-135.8,1.3-261.8,2-386.9,2.5
				c15.2-86.5,27.8-172.3,34.2-260.6c7.8-101.7,28.6-201.7,46.1-301.8c95.4,9.5,190.5,12.4,285.1-2
				C1623.6,1467.7,1614.6,1574.3,1626.5,1681z"/>
			
				<linearGradient id="XMLID_31_" gradientUnits="userSpaceOnUse" x1="1264.2778" y1="424.2624" x2="1203.9374" y2="62.2197" gradientTransform="matrix(1 0 0 -1 0 1754.7588)">
				<stop  offset="0" style="stop-color:#62C194"/>
				<stop  offset="0.165" style="stop-color:#00A774"/>
				<stop  offset="0.995" style="stop-color:#000238;stop-opacity:0"/>
			</linearGradient>
			<path id="XMLID_3716_" fill="url(#XMLID_31_)" d="M1268.8,1925.2c-58.1,0.3-116.1,0.5-174.7,0.8c13.5-88.1,18.1-177,32.5-266.7
				c17.7-108.3,22.4-214.7,32.5-320.8c63.4,8.9,126.8,18,190,24.3c-17.6,100-38.3,200-46.1,301.8
				C1296.6,1752.9,1284,1838.7,1268.8,1925.2z"/>
			
				<linearGradient id="XMLID_32_" gradientUnits="userSpaceOnUse" x1="646.3324" y1="398.6827" x2="609.7198" y2="96.0187" gradientTransform="matrix(1 0 0 -1 0 1754.7588)">
				<stop  offset="0" style="stop-color:#62C194"/>
				<stop  offset="0.165" style="stop-color:#00A774"/>
				<stop  offset="0.995" style="stop-color:#000238;stop-opacity:0"/>
			</linearGradient>
			<path id="XMLID_3715_" fill="url(#XMLID_32_)" d="M723.4,1396.3c-24.6-2.2-49.2-4.6-73.6-5.4c-25.5-0.8-50.8,0.1-75.7,5.1
				c-12.2,2.4-24.9,6.2-32.1,14.6c-12.1,14-3.4,33.6,8.2,47.9c11.6,14.3,26.6,28.6,26.4,45.8c0,4.3-1.1,8.4-2.9,12.3l-51,414.5
				c26,0.1,52,0,78.1,0c25.9-0.1,51.9-0.2,77.8-0.4c13-123.7,15.3-247.9,25.4-372.7C708.4,1503.6,715.8,1449.9,723.4,1396.3z"/>
			
				<linearGradient id="XMLID_33_" gradientUnits="userSpaceOnUse" x1="603.6431" y1="367.108" x2="567.2576" y2="66.3217" gradientTransform="matrix(1 0 0 -1 0 1754.7588)">
				<stop  offset="0" style="stop-color:#62C194"/>
				<stop  offset="0.165" style="stop-color:#00A774"/>
				<stop  offset="0.995" style="stop-color:#000238;stop-opacity:0"/>
			</linearGradient>
			<path id="XMLID_3714_" fill="url(#XMLID_33_)" d="M649.9,1390.9c-25.5-0.8-50.8,0.1-75.7,5.1c-12.2,2.4-24.9,6.2-32.1,14.6
				c-12.1,14-3.4,33.6,8.2,47.9c11.6,14.3,26.6,28.6,26.4,45.8c0,4.3-1.1,8.4-2.9,12.3l-51,414.5c26,0.1,52,0,78.1,0
				c11.5-135.8,24.2-303.6,31.2-390.2C636.1,1490.4,642.8,1440.6,649.9,1390.9z"/>
			
				<linearGradient id="XMLID_34_" gradientUnits="userSpaceOnUse" x1="770.8549" y1="370.3691" x2="734.9839" y2="73.8359" gradientTransform="matrix(1 0 0 -1 0 1754.7588)">
				<stop  offset="0" style="stop-color:#62C194"/>
				<stop  offset="0.165" style="stop-color:#00A774"/>
				<stop  offset="0.995" style="stop-color:#000238;stop-opacity:0"/>
			</linearGradient>
			<path id="XMLID_3713_" fill="url(#XMLID_34_)" d="M816.2,1399.5c-20.6,121.8-36.5,244.4-55.2,368.7
				c-8.4,54.3-12.4,108.2-20.6,161.8c-20.6,0.2-41.2,0.4-61.8,0.5c13-123.7,15.3-247.9,25.4-372.7c4.4-54.2,11.8-107.9,19.4-161.5
				C754.5,1399.1,785.6,1401.4,816.2,1399.5z"/>
			
				<linearGradient id="XMLID_35_" gradientUnits="userSpaceOnUse" x1="829.2366" y1="287.2122" x2="792.3376" y2="-17.8191" gradientTransform="matrix(1 0 0 -1 0 1754.7588)">
				<stop  offset="0" style="stop-color:#62C194"/>
				<stop  offset="0.165" style="stop-color:#00A774"/>
				<stop  offset="0.995" style="stop-color:#000238;stop-opacity:0"/>
			</linearGradient>
			<path id="XMLID_3712_" fill="url(#XMLID_35_)" d="M872.7,1379.9c0,0-55.8,444-70.4,549.5c-20.6,0.2-41.3,0.4-62,0.6
				c8.2-53.5,12.2-107.4,20.6-161.8c18.8-124.3,34.6-246.9,55.2-368.7c8.4-0.5,16.7-1.3,25-2.6
				C854.4,1395,869.5,1390.4,872.7,1379.9z"/>
			
				<linearGradient id="XMLID_36_" gradientUnits="userSpaceOnUse" x1="500.9311" y1="194.0854" x2="478.719" y2="-8.2916" gradientTransform="matrix(1 0 0 -1 0 1754.7588)">
				<stop  offset="0" style="stop-color:#62C194"/>
				<stop  offset="0.165" style="stop-color:#00A774"/>
				<stop  offset="0.995" style="stop-color:#000238;stop-opacity:0"/>
			</linearGradient>
			<path id="XMLID_3711_" fill="url(#XMLID_36_)" d="M522.8,1930.9c-43.5-0.1-86.9-0.5-130.3-1.2l58.4-377.9
				c9.9,0.1,19.8,0,29.8-0.1c20.8-0.4,42.3-1.4,61.1-8.6c14.1-5.4,26.6-15.1,32.1-26.7L522.8,1930.9z"/>
			
				<linearGradient id="XMLID_37_" gradientUnits="userSpaceOnUse" x1="105.0057" y1="242.4324" x2="82.9509" y2="41.4887" gradientTransform="matrix(1 0 0 -1 0 1754.7588)">
				<stop  offset="0" style="stop-color:#62C194"/>
				<stop  offset="0.165" style="stop-color:#00A774"/>
				<stop  offset="0.995" style="stop-color:#000238;stop-opacity:0"/>
			</linearGradient>
			<path id="XMLID_3710_" fill="url(#XMLID_37_)" d="M149.7,1921.2c-62.8-3.6-125.4-8.3-187.9-14.6l42.7-445.4
				c65.2,27.6,134.2,49.1,205.2,64.2c-7.7,68.1-21.2,134.6-36.7,204.4C159.4,1794.5,159.6,1858.8,149.7,1921.2z"/>
			
				<linearGradient id="XMLID_38_" gradientUnits="userSpaceOnUse" x1="261.0564" y1="256.2126" x2="241.3411" y2="76.5848" gradientTransform="matrix(1 0 0 -1 0 1754.7588)">
				<stop  offset="0" style="stop-color:#62C194"/>
				<stop  offset="0.165" style="stop-color:#00A774"/>
				<stop  offset="0.995" style="stop-color:#000238;stop-opacity:0"/>
			</linearGradient>
			<path id="XMLID_3709_" fill="url(#XMLID_38_)" d="M288,1744.6c-10.5,61-9.8,122.4-22.5,181.9c-38.6-1.4-77.2-3.1-115.8-5.3
				c9.9-62.4,9.6-126.7,23.3-191.3c15.5-69.8,29-136.3,36.7-204.4c36.8,7.8,74.2,14,111.9,18.4
				C308.8,1609.9,300.1,1676.9,288,1744.6z"/>
			
				<linearGradient id="XMLID_39_" gradientUnits="userSpaceOnUse" x1="348.8303" y1="175.1038" x2="329.6819" y2="0.6411" gradientTransform="matrix(1 0 0 -1 0 1754.7588)">
				<stop  offset="0" style="stop-color:#62C194"/>
				<stop  offset="0.165" style="stop-color:#00A774"/>
				<stop  offset="0.995" style="stop-color:#000238;stop-opacity:0"/>
			</linearGradient>
			<path id="XMLID_3697_" fill="url(#XMLID_39_)" d="M332.7,1928.5c-22.4-0.6-44.8-1.2-67.2-2c12.8-59.5,12.1-120.9,22.5-181.9
				c12.1-67.6,20.8-134.7,33.6-200.7c25.1,2.9,50.4,5.1,75.8,6.4C380.2,1676.8,352.7,1802.2,332.7,1928.5z"/>
			
				<linearGradient id="XMLID_40_" gradientUnits="userSpaceOnUse" x1="418.3337" y1="256.5926" x2="396.1738" y2="54.6909" gradientTransform="matrix(1 0 0 -1 0 1754.7588)">
				<stop  offset="0" style="stop-color:#62C194"/>
				<stop  offset="0.165" style="stop-color:#00A774"/>
				<stop  offset="0.995" style="stop-color:#000238;stop-opacity:0"/>
			</linearGradient>
			<path id="XMLID_3679_" fill="url(#XMLID_40_)" d="M392.4,1929.7c-19.9-0.3-39.8-0.7-59.7-1.2c20-126.3,47.6-251.7,64.7-378.3
				c17.8,0.9,35.7,1.5,53.5,1.6L392.4,1929.7z"/>
		</g>
		<linearGradient id="XMLID_41_" gradientUnits="userSpaceOnUse" x1="16.7148" y1="999.1" x2="16.7148" y2="999.1">
			<stop  offset="0" style="stop-color:#268032"/>
			<stop  offset="1" style="stop-color:#000000"/>
		</linearGradient>
		<path id="XMLID_2248_" fill="url(#XMLID_41_)" d="M16.7,999.1"/>
		<linearGradient id="XMLID_42_" gradientUnits="userSpaceOnUse" x1="16.7148" y1="999.1" x2="16.7148" y2="999.1">
			<stop  offset="0" style="stop-color:#268032"/>
			<stop  offset="1" style="stop-color:#000000"/>
		</linearGradient>
		<path id="XMLID_2156_" fill="url(#XMLID_42_)" d="M16.7,999.1"/>
		<linearGradient id="XMLID_43_" gradientUnits="userSpaceOnUse" x1="718.1337" y1="964.1882" x2="734.1337" y2="1260.1882">
			<stop  offset="5.000000e-003" style="stop-color:#00A774"/>
			<stop  offset="1" style="stop-color:#000238"/>
		</linearGradient>
		<path id="XMLID_2299_" fill="url(#XMLID_43_)" d="M1438.8,960.4c-539.9-7.6-1011.2,21.5-1011.2,21.5L-3,960.4v-25.8l430.6,21.5
			c0,0,404.4-24.9,893.2-22.6C1367.1,942.7,1407.1,951.7,1438.8,960.4z"/>
		<linearGradient id="XMLID_44_" gradientUnits="userSpaceOnUse" x1="845.0427" y1="325.0481" x2="545.2272" y2="986.5458">
			<stop  offset="5.000000e-003" style="stop-color:#00A774"/>
			<stop  offset="1" style="stop-color:#000238"/>
		</linearGradient>
		<path id="XMLID_3744_" fill="url(#XMLID_44_)" d="M1180.3,883.6l-21.2-94.5l-18.2,81.2c-25.5-8.5-51.6-17.1-78.1-25.7l-18.8-83.6
			l-16.2,72.4c-4.4-1.4-8.8-2.8-13.2-4.2L999,759.2l-3.6,16.1l-8.6-38.3l-17.5,77.8c-10.3-3.2-20.7-6.5-31-9.7l-33.9-151.3
			l-26.2,116.6L857,676.1l-21.8,97.3c-20.4-6.2-40.7-12.3-61.1-18.4l-8.4-37.4l-7.3,32.7c-24.7-7.3-49.3-14.6-73.7-21.8l-25.7-114.6
			l-20.8,92.8l-35.5-158.4l-32.9,146.9c-16.6-4.8-33-9.5-49.2-14.1l-22.7-101.1l-20,89c-14.3-4.1-28.5-8-42.5-12l-33.3-148.5
			l-29.4,131c-1.4-0.4-2.9-0.8-4.3-1.2l-36.8-164l-32.5,144.9C120.4,570-3,538-3,538v396.6l430.6,21.5c0,0,404.4-24.9,893.2-22.6
			C1277.2,917.3,1230,900.6,1180.3,883.6z"/>
		<linearGradient id="XMLID_45_" gradientUnits="userSpaceOnUse" x1="450.3463" y1="1066.7145" x2="450.3463" y2="1226.9745">
			<stop  offset="5.000000e-003" style="stop-color:#00A774"/>
			<stop  offset="1" style="stop-color:#000238"/>
		</linearGradient>
		<path id="XMLID_2143_" fill="url(#XMLID_45_)" d="M895.8,1097.6c-210,27.8-562,84.2-564.7,86.8L4.8,1227v-44.3l326.3-42.5
			c2.3-2.2,261.6-44,467.8-73.4C837.8,1077.7,871,1088.2,895.8,1097.6z"/>
		<linearGradient id="XMLID_46_" gradientUnits="userSpaceOnUse" x1="401.8913" y1="789" x2="401.8913" y2="1117.6091">
			<stop  offset="5.000000e-003" style="stop-color:#00A774"/>
			<stop  offset="1" style="stop-color:#000238"/>
		</linearGradient>
		<path id="XMLID_542_" fill="url(#XMLID_46_)" d="M798.9,1066.7c-206.2,29.4-465.5,71.2-467.8,73.4L4.8,1182.7V890
			C4.8,890,534.6,991.7,798.9,1066.7z"/>
		<g id="XMLID_2988_">
			
				<linearGradient id="XMLID_47_" gradientUnits="userSpaceOnUse" x1="-8.0614" y1="1064.2191" x2="-4.1363" y2="1252.6228" gradientTransform="matrix(-1 0 0 1 267.2607 0)">
				<stop  offset="5.000000e-003" style="stop-color:#00A774"/>
				<stop  offset="0.3" style="stop-color:#007470"/>
				<stop  offset="1" style="stop-color:#000238"/>
			</linearGradient>
			<rect id="XMLID_3557_" x="241.9" y="1009.1" fill="url(#XMLID_47_)" width="64.1" height="245.4"/>
			
				<linearGradient id="XMLID_48_" gradientUnits="userSpaceOnUse" x1="-110.4459" y1="1126.2491" x2="-110.4459" y2="1123.605" gradientTransform="matrix(-1 0 0 1 267.2607 0)">
				<stop  offset="5.000000e-003" style="stop-color:#00A774"/>
				<stop  offset="0.3" style="stop-color:#007470"/>
				<stop  offset="1" style="stop-color:#000238"/>
			</linearGradient>
			<path id="XMLID_3556_" fill="url(#XMLID_48_)" d="M377.8,1125.9c-1.1,0.6-1-0.2,0.1-2C378.6,1124.8,378.6,1125.5,377.8,1125.9z"
				/>
			
				<linearGradient id="XMLID_49_" gradientUnits="userSpaceOnUse" x1="71.2601" y1="1244.3594" x2="71.2601" y2="867.5798" gradientTransform="matrix(-1 0 0 1 267.2607 0)">
				<stop  offset="5.000000e-003" style="stop-color:#00A774"/>
				<stop  offset="0.3" style="stop-color:#007470"/>
				<stop  offset="1" style="stop-color:#000238"/>
			</linearGradient>
			<path id="XMLID_3555_" fill="url(#XMLID_49_)" d="M241.9,824.9l168.5,186.7c-0.3,2.1-0.7,4.3-1.1,6.4c-2.9,11.8,0,23.6-1.9,35.4
				c-1,2-2.9,3.9-5.8,2.9c-24.3-17.7-49.6-29.5-72.9-47.2c-7.8,14.7-10.7,31.4-14.6,47.2c-21.4-13.8-35-36.4-55.4-50.1
				c0,2.9,1,5.9,0,8.8c-16.5,34.4-32.1,66.8-44.7,103.2c-0.6,1.5-1.2,3-1.8,4.4l-18.3,10.2l-4.4-46.5l-82.7,46.5l-10.8-53.3
				l-114.2,39.6L241.9,824.9z"/>
			
				<linearGradient id="XMLID_50_" gradientUnits="userSpaceOnUse" x1="-95.5626" y1="1139.8966" x2="-95.5626" y2="908.287" gradientTransform="matrix(-1 0 0 1 267.2607 0)">
				<stop  offset="5.000000e-003" style="stop-color:#00A774"/>
				<stop  offset="0.3" style="stop-color:#007470"/>
				<stop  offset="1" style="stop-color:#000238"/>
			</linearGradient>
			<path id="XMLID_3553_" fill="url(#XMLID_50_)" d="M258.5,1015c1-2.9,0-5.9,0-8.8c20.4,13.8,34,36.4,55.4,50.1
				c3.9-15.7,6.8-32.4,14.6-47.2c23.3,17.7,48.6,29.5,72.9,47.2c2.9,1,4.9-1,5.8-2.9c1.9-11.8-1-23.6,1.9-35.4
				c0.5-2.1,0.9-4.3,1.1-6.4l103.2,114.4l-104-41.3c0,0-26.6,30.8-31.8,39.3c-5-6.5-44.9-23.8-44.9-23.8l-21.4,32.7l-52.9-36.1
				l-46.6,25.9c0.6-1.5,1.2-2.9,1.8-4.4C226.4,1081.8,242,1049.4,258.5,1015z"/>
			
				<linearGradient id="XMLID_51_" gradientUnits="userSpaceOnUse" x1="-100.5859" y1="982.4111" x2="-100.5859" y2="599.0338" gradientTransform="matrix(-1 0 0 1 267.2607 0)">
				<stop  offset="5.000000e-003" style="stop-color:#00A774"/>
				<stop  offset="0.3" style="stop-color:#007470"/>
				<stop  offset="1" style="stop-color:#000238"/>
			</linearGradient>
			<path id="XMLID_3552_" fill="url(#XMLID_51_)" d="M249.8,964.9c0-1,2.9-2,2.9-2.9c-1.9-26.5,9.7-50.1,13.6-76.6
				c0-2,0-6.9,2.9-9.8c1.9-1,1-4.9,1-7.9c12.6,13.8,24.3,28.5,37.9,41.3c-1-12.8,4.9-24.6,11.7-35.4c1-2.9,0-5.9,0-8.8
				c13.6,14.7,33.1,23.6,46.7,38.3c0-14.7,1-29.5,0-44.2c0,0-1.9,0-2.9,0c0-1,0-2,0-2.9c9.1,0.9,17.4,4.2,25.5,8.1l97.1,120.5
				l-102.4-39l-9.7,52.5l-74.1-45.8l-4,45.8l-46.3-28.3C249.5,968.1,249.5,966.5,249.8,964.9z"/>
			
				<linearGradient id="XMLID_52_" gradientUnits="userSpaceOnUse" x1="136.274" y1="991.575" x2="136.274" y2="988.9698" gradientTransform="matrix(-1 0 0 1 267.2607 0)">
				<stop  offset="5.000000e-003" style="stop-color:#00A774"/>
				<stop  offset="0.3" style="stop-color:#007470"/>
				<stop  offset="1" style="stop-color:#000238"/>
			</linearGradient>
			<path id="XMLID_3551_" fill="url(#XMLID_52_)" d="M130.9,991.3c-0.7-0.4-0.7-1.1-0.1-1.9C131.8,991,131.9,991.8,130.9,991.3z"/>
			
				<linearGradient id="XMLID_53_" gradientUnits="userSpaceOnUse" x1="68.1848" y1="1082.8029" x2="68.1848" y2="711.5835" gradientTransform="matrix(-1 0 0 1 267.2607 0)">
				<stop  offset="5.000000e-003" style="stop-color:#00A774"/>
				<stop  offset="0.3" style="stop-color:#007470"/>
				<stop  offset="1" style="stop-color:#000238"/>
			</linearGradient>
			<path id="XMLID_3550_" fill="url(#XMLID_53_)" d="M9.1,991.3l243.6-296.6L389,863.9c-8-3.9-16.3-7.2-25.5-8.1c0,1,0,2,0,2.9
				c1,0,2.9,0,2.9,0c1,14.7,0,29.5,0,44.2c-13.6-14.7-33.1-23.6-46.7-38.3c0,2.9,1,5.9,0,8.8c-6.8,10.8-12.6,22.6-11.7,35.4
				c-13.6-12.8-25.3-27.5-37.9-41.3c0,2.9,1,6.9-1,7.9c-2.9,2.9-2.9,7.9-2.9,9.8c-3.9,26.5-15.6,50.1-13.6,76.6c0,1-2.9,2-2.9,2.9
				c-0.3,1.6-0.2,3.2-0.1,4.8l-11.9-7.3l-47.5,35.6l-19.2-32.2c0,0-35.8,17.1-40.3,23.5c-4.7-8.4-28.5-38.7-28.5-38.7L9.1,991.3z"/>
			
				<linearGradient id="XMLID_54_" gradientUnits="userSpaceOnUse" x1="-47.8774" y1="862.916" x2="-47.8774" y2="495.9223" gradientTransform="matrix(-1 0 0 1 267.2607 0)">
				<stop  offset="5.000000e-003" style="stop-color:#00A774"/>
				<stop  offset="0.3" style="stop-color:#007470"/>
				<stop  offset="1" style="stop-color:#000238"/>
			</linearGradient>
			<path id="XMLID_3548_" fill="url(#XMLID_54_)" d="M235.2,699.6c1,1,1.9,2,2.9,2.9c0,2-1,4.9,0,5.9c5.8,5.9,4.9,13.8,8.8,20.6
				c1,0,2.9,0,2.9,0c1,2,0,3.9,0,5.9c5.8-13.8,15.6-25.5,17.5-41.3c19.5,3.9,33.1,24.6,49.6,35.4c0-17.7,0-35.4,0-53.1
				c9.9,1,17.7,6.3,25.1,12.4l90.5,157.1l-72.3-44.9c0,0-18.5,33.5-22.1,42.8c-3.4-7.1-31.2-25.9-31.2-25.9L292,853l-36.8-39.3
				L210.1,853l-3.1-50.6l-9.3,8.2c10.6-41.1,18-82.5,37.4-119.8C235.2,693.7,235.2,696.7,235.2,699.6z"/>
			
				<linearGradient id="XMLID_55_" gradientUnits="userSpaceOnUse" x1="-70.7588" y1="845.8736" x2="-70.7588" y2="842.9951" gradientTransform="matrix(-1 0 0 1 267.2607 0)">
				<stop  offset="5.000000e-003" style="stop-color:#00A774"/>
				<stop  offset="0.3" style="stop-color:#007470"/>
				<stop  offset="1" style="stop-color:#000238"/>
			</linearGradient>
			<path id="XMLID_3547_" fill="url(#XMLID_55_)" d="M338.1,845.5c-0.8,0.6-0.7-0.2,0.1-2.1C338.6,844.3,338.6,845.1,338.1,845.5z"
				/>
			
				<linearGradient id="XMLID_56_" gradientUnits="userSpaceOnUse" x1="64.9" y1="954.2991" x2="64.9" y2="544.1301" gradientTransform="matrix(-1 0 0 1 267.2607 0)">
				<stop  offset="5.000000e-003" style="stop-color:#00A774"/>
				<stop  offset="0.3" style="stop-color:#007470"/>
				<stop  offset="1" style="stop-color:#000238"/>
			</linearGradient>
			<path id="XMLID_3546_" fill="url(#XMLID_56_)" d="M243.7,517.8L342,688.4c-7.4-6.1-15.2-11.4-25.1-12.4c0,17.7,0,35.4,0,53.1
				c-16.5-10.8-30.2-31.4-49.6-35.4c-1.9,15.7-11.7,27.5-17.5,41.3c0-2,1-3.9,0-5.9c0,0-1.9,0-2.9,0c-3.9-6.9-2.9-14.7-8.8-20.6
				c-1-1,0-3.9,0-5.9c-1-1-1.9-2-2.9-2.9c0-2.9,0-5.9,0-8.8c-19.4,37.4-26.8,78.8-37.4,119.8L149.6,853l-7.5-58.1L62.7,838
				L243.7,517.8z"/>
			
				<linearGradient id="XMLID_57_" gradientUnits="userSpaceOnUse" x1="76.2683" y1="665.1497" x2="76.2683" y2="662.5159" gradientTransform="matrix(-1 0 0 1 267.2607 0)">
				<stop  offset="5.000000e-003" style="stop-color:#00A774"/>
				<stop  offset="0.3" style="stop-color:#007470"/>
				<stop  offset="1" style="stop-color:#000238"/>
			</linearGradient>
			<path id="XMLID_3545_" fill="url(#XMLID_57_)" d="M191,664.8c-0.3-0.4-0.3-1.1,0-2C191.4,664.6,191.4,665.4,191,664.8z"/>
			
				<linearGradient id="XMLID_58_" gradientUnits="userSpaceOnUse" x1="76.9365" y1="762.4399" x2="76.9365" y2="389.6689" gradientTransform="matrix(-1 0 0 1 267.2607 0)">
				<stop  offset="5.000000e-003" style="stop-color:#00A774"/>
				<stop  offset="0.3" style="stop-color:#007470"/>
				<stop  offset="1" style="stop-color:#000238"/>
			</linearGradient>
			<path id="XMLID_3544_" fill="url(#XMLID_58_)" d="M131.8,664.8l117-297.8c-18.1,92.6-11.6,187.8-14.3,281.6l-14.7,23.1l-9.3-32.7
				c0,0-17.4,17.4-19.6,23.8c-2.3-8.5-13.8-39.3-13.8-39.3L131.8,664.8z"/>
			
				<linearGradient id="XMLID_59_" gradientUnits="userSpaceOnUse" x1="-31.711" y1="688.9196" x2="-31.711" y2="312.2468" gradientTransform="matrix(-1 0 0 1 267.2607 0)">
				<stop  offset="5.000000e-003" style="stop-color:#00A774"/>
				<stop  offset="0.3" style="stop-color:#007470"/>
				<stop  offset="1" style="stop-color:#000238"/>
			</linearGradient>
			<path id="XMLID_3542_" fill="url(#XMLID_59_)" d="M250.1,363.9L363.4,658l-49.7-39.6l-4.7,53.3l-36-46.4l-1.9,46.4l-28.3-36.1
				l-8.3,13c2.7-93.8-3.8-189,14.3-281.6L250.1,363.9z"/>
		</g>
		<linearGradient id="XMLID_60_" gradientUnits="userSpaceOnUse" x1="467.0129" y1="641" x2="467.0129" y2="1406.266">
			<stop  offset="5.000000e-003" style="stop-color:#00A774"/>
			<stop  offset="1" style="stop-color:#000238"/>
		</linearGradient>
		<polygon id="XMLID_3558_" fill="url(#XMLID_60_)" points="937,1400 499,1279.2 471,1243 -3,1101.6 -3,1400 		"/>
		<g id="XMLID_2980_">
			<linearGradient id="XMLID_61_" gradientUnits="userSpaceOnUse" x1="79.7565" y1="1485" x2="79.7565" y2="1189.3989">
				<stop  offset="5.000000e-003" style="stop-color:#00A774"/>
				<stop  offset="0.3" style="stop-color:#007470"/>
				<stop  offset="1" style="stop-color:#000238"/>
			</linearGradient>
			<rect id="XMLID_3541_" x="34.9" y="996" fill="url(#XMLID_61_)" width="89.7" height="343.4"/>
			
				<linearGradient id="XMLID_62_" gradientUnits="userSpaceOnUse" x1="42.2627" y1="1159.9188" x2="42.2627" y2="1156.2188" gradientTransform="matrix(-1 0 0 1 267.2607 0)">
				<stop  offset="5.000000e-003" style="stop-color:#00A774"/>
				<stop  offset="0.3" style="stop-color:#007470"/>
				<stop  offset="1" style="stop-color:#000238"/>
			</linearGradient>
			<path id="XMLID_3540_" fill="url(#XMLID_62_)" d="M225.1,1159.5c-1.6,0.8-1.4-0.3,0.1-2.8C226.2,1158,226.2,1158.9,225.1,1159.5z
				"/>
			
				<linearGradient id="XMLID_63_" gradientUnits="userSpaceOnUse" x1="296.5313" y1="1325.1952" x2="296.5313" y2="797.9523" gradientTransform="matrix(-1 0 0 1 267.2607 0)">
				<stop  offset="5.000000e-003" style="stop-color:#00A774"/>
				<stop  offset="0.3" style="stop-color:#007470"/>
				<stop  offset="1" style="stop-color:#000238"/>
			</linearGradient>
			<path id="XMLID_3535_" fill="url(#XMLID_63_)" d="M35,738.2l235.8,261.2c-0.4,3-0.9,6-1.6,9c-4.1,16.5,0,33-2.7,49.5
				c-1.4,2.7-4.1,5.5-8.2,4.1c-34-24.7-69.4-41.2-102.1-66c-10.9,20.6-15,44-20.4,66c-29.9-19.2-49-50.9-77.6-70.1
				c0,4.1,1.4,8.2,0,12.4c-23.1,48.1-44.9,93.5-62.6,144.4c-0.8,2.1-1.7,4.2-2.5,6.2l-25.6,14.3l-6.2-65l-115.7,65l-15.1-74.6
				l-159.8,55.4L35,738.2z"/>
			
				<linearGradient id="XMLID_64_" gradientUnits="userSpaceOnUse" x1="63.0896" y1="1179.0162" x2="63.0896" y2="854.9156" gradientTransform="matrix(-1 0 0 1 267.2607 0)">
				<stop  offset="5.000000e-003" style="stop-color:#00A774"/>
				<stop  offset="0.3" style="stop-color:#007470"/>
				<stop  offset="1" style="stop-color:#000238"/>
			</linearGradient>
			<path id="XMLID_3534_" fill="url(#XMLID_64_)" d="M58.2,1004.3c1.4-4.1,0-8.2,0-12.4c28.6,19.2,47.6,50.9,77.6,70.1
				c5.4-22,9.5-45.4,20.4-66c32.7,24.7,68.1,41.2,102.1,66c4.1,1.4,6.8-1.4,8.2-4.1c2.7-16.5-1.4-33,2.7-49.5c0.7-3,1.2-6,1.6-9
				l144.4,160l-145.5-57.8c0,0-37.2,43.1-44.5,55c-6.9-9.1-62.9-33.4-62.9-33.4l-30,45.7l-74.1-50.6l-65.2,36.3
				c0.9-2,1.7-4.1,2.5-6.2C13.3,1097.8,35.1,1052.4,58.2,1004.3z"/>
			
				<linearGradient id="XMLID_65_" gradientUnits="userSpaceOnUse" x1="56.0603" y1="958.6404" x2="56.0603" y2="422.165" gradientTransform="matrix(-1 0 0 1 267.2607 0)">
				<stop  offset="5.000000e-003" style="stop-color:#00A774"/>
				<stop  offset="0.3" style="stop-color:#007470"/>
				<stop  offset="1" style="stop-color:#000238"/>
			</linearGradient>
			<path id="XMLID_3204_" fill="url(#XMLID_65_)" d="M46,934.1c0-1.4,4.1-2.7,4.1-4.1c-2.7-37.1,13.6-70.1,19.1-107.2
				c0-2.7,0-9.6,4.1-13.7c2.7-1.4,1.4-6.9,1.4-11c17.7,19.2,34,39.9,53.1,57.7c-1.4-17.9,6.8-34.4,16.3-49.5c1.4-4.1,0-8.2,0-12.4
				c19.1,20.6,46.3,33,65.3,53.6c0-20.6,1.4-41.2,0-61.9c0,0-2.7,0-4.1,0c0-1.4,0-2.7,0-4.1c12.8,1.3,24.4,5.9,35.6,11.3
				l135.8,168.7L233.5,907l-13.5,73.5l-103.8-64l-5.6,64l-64.8-39.6C45.7,938.6,45.6,936.3,46,934.1z"/>
			
				<linearGradient id="XMLID_66_" gradientUnits="userSpaceOnUse" x1="387.5079" y1="971.4638" x2="387.5079" y2="967.8183" gradientTransform="matrix(-1 0 0 1 267.2607 0)">
				<stop  offset="5.000000e-003" style="stop-color:#00A774"/>
				<stop  offset="0.3" style="stop-color:#007470"/>
				<stop  offset="1" style="stop-color:#000238"/>
			</linearGradient>
			<path id="XMLID_3201_" fill="url(#XMLID_66_)" d="M-120.4,971c-1-0.6-1-1.5-0.1-2.7C-119.1,970.7-118.9,971.8-120.4,971z"/>
			
				<linearGradient id="XMLID_67_" gradientUnits="userSpaceOnUse" x1="292.228" y1="1099.1227" x2="292.228" y2="579.6604" gradientTransform="matrix(-1 0 0 1 267.2607 0)">
				<stop  offset="5.000000e-003" style="stop-color:#00A774"/>
				<stop  offset="0.3" style="stop-color:#007470"/>
				<stop  offset="1" style="stop-color:#000238"/>
			</linearGradient>
			<path id="XMLID_3022_" fill="url(#XMLID_67_)" d="M-290.8,971L50.1,556l190.8,236.9c-11.2-5.4-22.8-10-35.6-11.3
				c0,1.4,0,2.7,0,4.1c1.4,0,4.1,0,4.1,0c1.4,20.6,0,41.2,0,61.9c-19.1-20.6-46.3-33-65.3-53.6c0,4.1,1.4,8.2,0,12.4
				c-9.5,15.1-17.7,31.6-16.3,49.5c-19.1-17.9-35.4-38.5-53.1-57.7c0,4.1,1.4,9.6-1.4,11c-4.1,4.1-4.1,11-4.1,13.7
				c-5.4,37.1-21.8,70.1-19.1,107.2c0,1.4-4.1,2.7-4.1,4.1c-0.4,2.2-0.3,4.4-0.2,6.7l-16.6-10.2l-66.4,49.8l-26.9-45.1
				c0,0-50.2,23.9-56.4,32.9c-6.5-11.7-39.9-54.2-39.9-54.2L-290.8,971z"/>
			
				<linearGradient id="XMLID_68_" gradientUnits="userSpaceOnUse" x1="129.8174" y1="791.426" x2="129.8174" y2="277.877" gradientTransform="matrix(-1 0 0 1 267.2607 0)">
				<stop  offset="5.000000e-003" style="stop-color:#00A774"/>
				<stop  offset="0.3" style="stop-color:#007470"/>
				<stop  offset="1" style="stop-color:#000238"/>
			</linearGradient>
			<path id="XMLID_3019_" fill="url(#XMLID_68_)" d="M25.6,562.9c1.4,1.4,2.7,2.7,4.1,4.1c0,2.7-1.4,6.9,0,8.2
				c8.2,8.2,6.8,19.2,12.2,28.9c1.4,0,4.1,0,4.1,0c1.4,2.7,0,5.5,0,8.2c8.2-19.2,21.8-35.7,24.5-57.7c27.2,5.5,46.3,34.4,69.4,49.5
				c0-24.7,0-49.5,0-74.2c13.8,1.4,24.8,8.8,35.1,17.4l126.6,219.8l-101.1-62.9c0,0-25.8,46.9-30.9,59.9
				c-4.8-9.9-43.7-36.3-43.7-36.3l-20.8,49.8l-51.5-55l-63.1,55l-4.3-70.8l-13,11.4c14.9-57.5,25.2-115.4,52.4-167.7
				C25.6,554.7,25.6,558.8,25.6,562.9z"/>
			
				<linearGradient id="XMLID_69_" gradientUnits="userSpaceOnUse" x1="97.7985" y1="767.578" x2="97.7985" y2="763.55" gradientTransform="matrix(-1 0 0 1 267.2607 0)">
				<stop  offset="5.000000e-003" style="stop-color:#00A774"/>
				<stop  offset="0.3" style="stop-color:#007470"/>
				<stop  offset="1" style="stop-color:#000238"/>
			</linearGradient>
			<path id="XMLID_3008_" fill="url(#XMLID_69_)" d="M169.6,767.1c-1.1,0.9-0.9-0.3,0.1-3C170.3,765.4,170.3,766.5,169.6,767.1z"/>
			
				<linearGradient id="XMLID_70_" gradientUnits="userSpaceOnUse" x1="287.6314" y1="919.3021" x2="287.6314" y2="345.336" gradientTransform="matrix(-1 0 0 1 267.2607 0)">
				<stop  offset="5.000000e-003" style="stop-color:#00A774"/>
				<stop  offset="0.3" style="stop-color:#007470"/>
				<stop  offset="1" style="stop-color:#000238"/>
			</linearGradient>
			<path id="XMLID_3007_" fill="url(#XMLID_70_)" d="M37.4,308.5L175,547.3c-10.3-8.6-21.3-16-35.1-17.4c0,24.7,0,49.5,0,74.2
				c-23.1-15.1-42.2-44-69.4-49.5c-2.7,22-16.3,38.5-24.5,57.7c0-2.7,1.4-5.5,0-8.2c0,0-2.7,0-4.1,0c-5.4-9.6-4.1-20.6-12.2-28.9
				c-1.4-1.4,0-5.5,0-8.2c-1.4-1.4-2.7-2.7-4.1-4.1c0-4.1,0-8.2,0-12.4c-27.1,52.3-37.5,110.2-52.4,167.7l-67.4,59.3l-10.5-81.2
				l-111,60.3L37.4,308.5z"/>
			
				<linearGradient id="XMLID_71_" gradientUnits="userSpaceOnUse" x1="303.5396" y1="514.6837" x2="303.5396" y2="510.9981" gradientTransform="matrix(-1 0 0 1 267.2607 0)">
				<stop  offset="5.000000e-003" style="stop-color:#00A774"/>
				<stop  offset="0.3" style="stop-color:#007470"/>
				<stop  offset="1" style="stop-color:#000238"/>
			</linearGradient>
			<path id="XMLID_3003_" fill="url(#XMLID_71_)" d="M-36.3,514.3c-0.5-0.6-0.5-1.5-0.1-2.7C-35.7,513.9-35.6,515.1-36.3,514.3z"/>
			
				<linearGradient id="XMLID_72_" gradientUnits="userSpaceOnUse" x1="304.4746" y1="650.8259" x2="304.4746" y2="129.1923" gradientTransform="matrix(-1 0 0 1 267.2607 0)">
				<stop  offset="5.000000e-003" style="stop-color:#00A774"/>
				<stop  offset="0.3" style="stop-color:#007470"/>
				<stop  offset="1" style="stop-color:#000238"/>
			</linearGradient>
			<path id="XMLID_2998_" fill="url(#XMLID_72_)" d="M-119.1,514.3L44.7,97.5c-25.3,129.6-16.2,262.7-20,394L4,523.9l-13-45.7
				c0,0-24.4,24.3-27.4,33.4c-3.2-11.9-19.4-55-19.4-55L-119.1,514.3z"/>
			
				<linearGradient id="XMLID_73_" gradientUnits="userSpaceOnUse" x1="152.4397" y1="547.9459" x2="152.4397" y2="20.8525" gradientTransform="matrix(-1 0 0 1 267.2607 0)">
				<stop  offset="5.000000e-003" style="stop-color:#00A774"/>
				<stop  offset="0.3" style="stop-color:#007470"/>
				<stop  offset="1" style="stop-color:#000238"/>
			</linearGradient>
			<path id="XMLID_2997_" fill="url(#XMLID_73_)" d="M46.4,93.1L205,504.6l-69.5-55.4l-6.6,74.6l-50.4-65l-2.7,65l-39.5-50.5
				l-11.6,18.2c3.8-131.3-5.3-264.4,20-394L46.4,93.1z"/>
		</g>
		<linearGradient id="XMLID_74_" gradientUnits="userSpaceOnUse" x1="466.9875" y1="1341.8833" x2="466.9875" y2="1609.1796">
			<stop  offset="5.000000e-003" style="stop-color:#00A774"/>
			<stop  offset="1" style="stop-color:#000238"/>
		</linearGradient>
		<path id="XMLID_3560_" fill="url(#XMLID_74_)" d="M499,1279.2H306l207.7,69.8c0,0-522.6,42-516.6,51s940,0,940,0L499,1279.2z"/>
		<linearGradient id="XMLID_75_" gradientUnits="userSpaceOnUse" x1="123.5212" y1="1523" x2="123.5212" y2="1311">
			<stop  offset="5.000000e-003" style="stop-color:#00A774"/>
			<stop  offset="1" style="stop-color:#000238"/>
		</linearGradient>
		<path id="XMLID_3728_" fill="url(#XMLID_75_)" d="M234.5,1341.6c-109.9-46.6-253-87.1-253-87.1V1400l283.9-30l-96.7-21.1
			L234.5,1341.6z"/>
		<g id="XMLID_3748_">
			<circle id="XMLID_3727_" fill="#FFFFFF" cx="1064.8" cy="90.6" r="2.8"/>
			<circle id="XMLID_3730_" fill="#FFFFFF" cx="649.9" cy="333" r="2.8"/>
			<circle id="XMLID_3740_" fill="#FFFFFF" cx="875.5" cy="161" r="2.8"/>
			<circle id="XMLID_3731_" fill="#FFFFFF" cx="623.1" cy="217.2" r="2.8"/>
			<circle id="XMLID_3732_" fill="#FFFFFF" cx="767" cy="455.2" r="2.8"/>
			<circle id="XMLID_3733_" fill="#FFFFFF" cx="1139" cy="220" r="2.8"/>
			<circle id="XMLID_3734_" fill="#FFFFFF" cx="798.9" cy="37" r="2.8"/>
			<circle id="XMLID_3735_" fill="#FFFFFF" cx="377" cy="474.2" r="2.8"/>
			<circle id="XMLID_3736_" fill="#FFFFFF" cx="146.8" cy="99.7" r="4.5"/>
			<circle id="XMLID_3737_" fill="#FFFFFF" cx="1290.5" cy="65" r="4.5"/>
			<circle id="XMLID_3739_" fill="#FFFFFF" cx="522.8" cy="65" r="4.5"/>
			<circle id="XMLID_3738_" fill="#FFFFFF" cx="1286" cy="543" r="4.5"/>
			<circle id="XMLID_3729_" fill="#FFFFFF" cx="483.1" cy="444.5" r="2.8"/>
			<circle id="XMLID_3741_" fill="#FFFFFF" cx="1236.5" cy="180.1" r="2.8"/>
			<circle id="XMLID_3742_" fill="#FFFFFF" cx="265.5" cy="87.8" r="2.8"/>
			<circle id="XMLID_3743_" fill="#FFFFFF" cx="377.7" cy="330.2" r="2.8"/>
			<circle id="XMLID_3745_" fill="#FFFFFF" cx="1239.3" cy="351" r="2.8"/>
			<circle id="XMLID_3746_" fill="#FFFFFF" cx="991.9" cy="330.2" r="2.8"/>
		</g>
		<g id="XMLID_3750_">
			<circle id="XMLID_3768_" fill="#FFFFFF" cx="1064.8" cy="1750.4" r="2.8"/>
			<circle id="XMLID_3767_" fill="#FFFFFF" cx="649.9" cy="1508" r="2.8"/>
			<circle id="XMLID_3766_" fill="#FFFFFF" cx="875.5" cy="1680" r="2.8"/>
			<circle id="XMLID_3765_" fill="#FFFFFF" cx="623.1" cy="1623.9" r="2.8"/>
			<circle id="XMLID_3764_" fill="#FFFFFF" cx="767" cy="1385.9" r="2.8"/>
			<circle id="XMLID_3763_" fill="#FFFFFF" cx="1139" cy="1621.1" r="2.8"/>
			<circle id="XMLID_3762_" fill="#FFFFFF" cx="798.9" cy="1804" r="2.8"/>
			<circle id="XMLID_3761_" fill="#FFFFFF" cx="377" cy="1366.8" r="2.8"/>
			<circle id="XMLID_3760_" fill="#FFFFFF" cx="146.8" cy="1741.4" r="4.5"/>
			<circle id="XMLID_3759_" fill="#FFFFFF" cx="1290.5" cy="1776" r="4.5"/>
			<circle id="XMLID_3758_" fill="#FFFFFF" cx="522.8" cy="1776" r="4.5"/>
			<circle id="XMLID_3757_" fill="#FFFFFF" cx="1286" cy="1298" r="4.5"/>
			<circle id="XMLID_3756_" fill="#FFFFFF" cx="483.1" cy="1396.6" r="2.8"/>
			<circle id="XMLID_3755_" fill="#FFFFFF" cx="1236.5" cy="1660.9" r="2.8"/>
			<circle id="XMLID_3754_" fill="#FFFFFF" cx="265.5" cy="1753.2" r="2.8"/>
			<circle id="XMLID_3753_" fill="#FFFFFF" cx="377.7" cy="1510.9" r="2.8"/>
			<circle id="XMLID_3752_" fill="#FFFFFF" cx="1239.3" cy="1490" r="2.8"/>
			<circle id="XMLID_3751_" fill="#FFFFFF" cx="991.9" cy="1510.9" r="2.8"/>
		</g>
	</g>
</g>
</svg>
